<svg xmlns="http://www.w3.org/2000/svg" width="500" height="500"><defs><marker id="marker" viewBox="0 -5 10 10" refX="15" refY="-1.5" markerWidth="6" markerHeight="6" orient="auto"><path d="M 0,-5 L 10 ,0 L 0,5" fill="#555" stroke="#555"></path></marker></defs><g class="links"><path stroke-width="1px" stroke="#555" fill="none" marker-end="url(#marker)" d="M217.03447236713734,378.38975097042163A44.39721674062079,44.39721674062079 0,0,1 259.94546089206216,366.99852987137217"></path><path stroke-width="1px" stroke="#555" fill="none" marker-end="url(#marker)" d="M259.94546089206216,366.99852987137217A57.3809734358748,57.3809734358748 0,0,1 276.9981665737135,421.7870445563273"></path><path stroke-width="1px" stroke="#555" fill="none" marker-end="url(#marker)" d="M276.9981665737135,421.7870445563273A39.6035595835941,39.6035595835941 0,0,1 305.33453975222136,449.4545686013088"></path><path stroke-width="1px" stroke="#555" fill="none" marker-end="url(#marker)" d="M259.94546089206216,366.99852987137217A65.50344552668123,65.50344552668123 0,0,1 276.91921992697314,303.73248147184216"></path><path stroke-width="1px" stroke="#555" fill="none" marker-end="url(#marker)" d="M276.91921992697314,303.73248147184216A73.11747216329864,73.11747216329864 0,0,1 286.18808629631246,231.20488085126405"></path><path stroke-width="1px" stroke="#7CFC00" fill="none" marker-end="url(#marker)" d="M286.18808629631246,231.20488085126405A44.66117667927288,44.66117667927288 0,0,1 326.78822847308356,249.81265228158853"></path><path stroke-width="1px" stroke="#ff0000" fill="none" marker-end="url(#marker)" d="M286.18808629631246,231.20488085126405A84.41721102159843,84.41721102159843 0,0,1 281.25096741793004,146.93216656101586"></path><path stroke-width="1px" stroke="#7CFC00" fill="none" marker-end="url(#marker)" d="M281.25096741793004,146.93216656101586A74.22166150071496,74.22166150071496 0,0,1 339.5509349286474,100.99776959995829"></path><path stroke-width="1px" stroke="#7CFC00" fill="none" marker-end="url(#marker)" d="M339.5509349286474,100.99776959995829A45.96700406223117,45.96700406223117 0,0,1 341.6034078921562,146.91892830911155"></path><path stroke-width="1px" stroke="#ff0000" fill="none" marker-end="url(#marker)" d="M339.5509349286474,100.99776959995829A49.34624991270794,49.34624991270794 0,0,1 291.2528381983987,90.8811381110204"></path><path stroke-width="1px" stroke="#ff0000" fill="none" marker-end="url(#marker)" d="M281.25096741793004,146.93216656101586A80.53991181788692,80.53991181788692 0,0,1 200.86196495296525,151.86021671507135"></path><path stroke-width="1px" stroke="#555" fill="none" marker-end="url(#marker)" d="M341.6034078921562,146.91892830911155A60.3524419261253,60.3524419261253 0,0,1 281.25096741793004,146.93216656101586"></path><path stroke-width="1px" stroke="#555" fill="none" marker-end="url(#marker)" d="M291.2528381983987,90.8811381110204A56.93641373858555,56.93641373858555 0,0,1 281.25096741793004,146.93216656101586"></path><path stroke-width="1px" stroke="#555" fill="none" marker-end="url(#marker)" d="M200.86196495296525,151.86021671507135A71.29790009103942,71.29790009103942 0,0,1 130.56333478068413,163.7553061763863"></path><path stroke-width="1px" stroke="#7CFC00" fill="none" marker-end="url(#marker)" d="M130.56333478068413,163.7553061763863A42.90958908366996,42.90958908366996 0,0,1 104.43175914088619,129.72041834182858"></path><path stroke-width="1px" stroke="#ff0000" fill="none" marker-end="url(#marker)" d="M130.56333478068413,163.7553061763863A62.26893061116503,62.26893061116503 0,0,1 93.9354103727209,214.11218130801672"></path><path stroke-width="1px" stroke="#555" fill="none" marker-end="url(#marker)" d="M104.43175914088619,129.72041834182858A42.90958908366996,42.90958908366996 0,0,1 130.56333478068413,163.7553061763863"></path><path stroke-width="1px" stroke="#555" fill="none" marker-end="url(#marker)" d="M93.9354103727209,214.11218130801672A42.40430194441769,42.40430194441769 0,0,1 70.37174750357683,249.36666493184345"></path></g><g class="nodes"><g transform="translate(217.03447236713734,378.38975097042163)"><circle r="4" style="stroke: #000; stroke-width: 1.5px;" fill="#fff"></circle><circle r="5" fill="#1f77b4" style="stroke: #000; stroke-width: 1.5px;"></circle><text x="6" y="3" style="font-family: sans-serif; font-size: 10px;">(2)</text><title>0</title></g><g transform="translate(259.94546089206216,366.99852987137217)"><circle r="4" style="stroke: #000; stroke-width: 1.5px;" fill="#fff"></circle><circle r="5" fill="#aec7e8" style="stroke: #000; stroke-width: 1.5px;"></circle><text x="6" y="3" style="font-family: sans-serif; font-size: 10px;">(4)</text><title>1</title></g><g transform="translate(276.9981665737135,421.7870445563273)"><circle r="4" style="stroke: #000; stroke-width: 1.5px;" fill="#fff"></circle><circle r="5" fill="#ff7f0e" style="stroke: #000; stroke-width: 1.5px;"></circle><text x="6" y="3" style="font-family: sans-serif; font-size: 10px;">(7)</text><title>2</title></g><g transform="translate(305.33453975222136,449.4545686013088)"><circle r="4" style="stroke: #000; stroke-width: 1.5px;" fill="#fff"></circle><circle r="5" fill="#ffbb78" style="stroke: #000; stroke-width: 1.5px;"></circle><text x="6" y="3" style="font-family: sans-serif; font-size: 10px;">(8)</text><title>3</title></g><g transform="translate(276.91921992697314,303.73248147184216)"><circle r="4" style="stroke: #000; stroke-width: 1.5px;" fill="#fff"></circle><circle r="5" fill="#2ca02c" style="stroke: #000; stroke-width: 1.5px;"></circle><text x="6" y="3" style="font-family: sans-serif; font-size: 10px;">(11)</text><title>4</title></g><g transform="translate(286.18808629631246,231.20488085126405)"><circle r="4" style="stroke: #000; stroke-width: 1.5px;" fill="#fff"></circle><circle r="5" fill="#98df8a" style="stroke: #000; stroke-width: 1.5px;"></circle><text x="6" y="3" style="font-family: sans-serif; font-size: 10px;">(12) &lt;</text><title>5</title></g><g transform="translate(326.78822847308356,249.81265228158853)"><circle r="4" style="stroke: #000; stroke-width: 1.5px;" fill="#fff"></circle><circle r="5" fill="#d62728" style="stroke: #000; stroke-width: 1.5px;"></circle><text x="6" y="3" style="font-family: sans-serif; font-size: 10px;">(13)</text><title>6</title></g><g transform="translate(281.25096741793004,146.93216656101586)"><circle r="4" style="stroke: #000; stroke-width: 1.5px;" fill="#fff"></circle><circle r="5" fill="#ff9896" style="stroke: #000; stroke-width: 1.5px;"></circle><text x="6" y="3" style="font-family: sans-serif; font-size: 10px;">(15) &lt;</text><title>7</title></g><g transform="translate(339.5509349286474,100.99776959995829)"><circle r="4" style="stroke: #000; stroke-width: 1.5px;" fill="#fff"></circle><circle r="5" fill="#9467bd" style="stroke: #000; stroke-width: 1.5px;"></circle><text x="6" y="3" style="font-family: sans-serif; font-size: 10px;">(16) &gt;</text><title>8</title></g><g transform="translate(341.6034078921562,146.91892830911155)"><circle r="4" style="stroke: #000; stroke-width: 1.5px;" fill="#fff"></circle><circle r="5" fill="#c5b0d5" style="stroke: #000; stroke-width: 1.5px;"></circle><text x="6" y="3" style="font-family: sans-serif; font-size: 10px;">(17)</text><title>9</title></g><g transform="translate(291.2528381983987,90.8811381110204)"><circle r="4" style="stroke: #000; stroke-width: 1.5px;" fill="#fff"></circle><circle r="5" fill="#8c564b" style="stroke: #000; stroke-width: 1.5px;"></circle><text x="6" y="3" style="font-family: sans-serif; font-size: 10px;">(18)</text><title>10</title></g><g transform="translate(200.86196495296525,151.86021671507135)"><circle r="4" style="stroke: #000; stroke-width: 1.5px;" fill="#fff"></circle><circle r="5" fill="#c49c94" style="stroke: #000; stroke-width: 1.5px;"></circle><text x="6" y="3" style="font-family: sans-serif; font-size: 10px;">(19)</text><title>11</title></g><g transform="translate(130.56333478068413,163.7553061763863)"><circle r="4" style="stroke: #000; stroke-width: 1.5px;" fill="#fff"></circle><circle r="5" fill="#e377c2" style="stroke: #000; stroke-width: 1.5px;"></circle><text x="6" y="3" style="font-family: sans-serif; font-size: 10px;">(22) &lt;</text><title>12</title></g><g transform="translate(104.43175914088619,129.72041834182858)"><circle r="4" style="stroke: #000; stroke-width: 1.5px;" fill="#fff"></circle><circle r="5" fill="#f7b6d2" style="stroke: #000; stroke-width: 1.5px;"></circle><text x="6" y="3" style="font-family: sans-serif; font-size: 10px;">(23)</text><title>13</title></g><g transform="translate(93.9354103727209,214.11218130801672)"><circle r="4" style="stroke: #000; stroke-width: 1.5px;" fill="#fff"></circle><circle r="5" fill="#7f7f7f" style="stroke: #000; stroke-width: 1.5px;"></circle><text x="6" y="3" style="font-family: sans-serif; font-size: 10px;">(24)</text><title>14</title></g><g transform="translate(70.37174750357683,249.36666493184345)"><circle r="4" style="stroke: #000; stroke-width: 1.5px;" fill="#fff"></circle><circle r="5" fill="#c7c7c7" style="stroke: #000; stroke-width: 1.5px;"></circle><text x="6" y="3" style="font-family: sans-serif; font-size: 10px;">(26)</text><title>15</title></g></g></svg>